<svg id="visual" viewBox="0 0 1920 1080" width="1920" height="1080" xmlns="http://www.w3.org/2000/svg" xmlns:xlink="http://www.w3.org/1999/xlink" version="1.1"><g stroke-width="1" stroke-linejoin="bevel"><path d="M1004.3 496.9L912.7 435.9L834.7 579.1Z" fill="#e46171" stroke="#e46171"></path><path d="M834.7 579.1L1017.3 612.1L1004.3 496.9Z" fill="#363055" stroke="#363055"></path><path d="M1027.3 281.6L889.7 335.6L912.7 435.9Z" fill="#1f2743" stroke="#1f2743"></path><path d="M681.2 479.9L710.2 591.1L834.7 579.1Z" fill="#fa7268" stroke="#fa7268"></path><path d="M681.2 479.9L834.7 579.1L912.7 435.9Z" fill="#513864" stroke="#513864"></path><path d="M833.7 789.4L1034.3 768.4L1017.3 612.1Z" fill="#e46171" stroke="#e46171"></path><path d="M889.7 335.6L681.2 479.9L912.7 435.9Z" fill="#fa7268" stroke="#fa7268"></path><path d="M833.7 789.4L1017.3 612.1L834.7 579.1Z" fill="#513864" stroke="#513864"></path><path d="M710.2 591.1L833.7 789.4L834.7 579.1Z" fill="#ad4c79" stroke="#ad4c79"></path><path d="M1170.8 285.6L1027.3 281.6L1004.3 496.9Z" fill="#00101c" stroke="#00101c"></path><path d="M1004.3 496.9L1027.3 281.6L912.7 435.9Z" fill="#363055" stroke="#363055"></path><path d="M1166.8 658.1L1004.3 496.9L1017.3 612.1Z" fill="#513864" stroke="#513864"></path><path d="M1034.3 768.4L1166.8 658.1L1017.3 612.1Z" fill="#513864" stroke="#513864"></path><path d="M710.2 591.1L750.2 799.4L833.7 789.4Z" fill="#ad4c79" stroke="#ad4c79"></path><path d="M833.7 789.4L871.7 875.7L1034.3 768.4Z" fill="#0d1c2f" stroke="#0d1c2f"></path><path d="M543.6 802.4L750.2 799.4L710.2 591.1Z" fill="#e46171" stroke="#e46171"></path><path d="M878.7 185.3L746.2 262.6L889.7 335.6Z" fill="#513864" stroke="#513864"></path><path d="M889.7 335.6L746.2 262.6L681.2 479.9Z" fill="#00101c" stroke="#00101c"></path><path d="M1166.8 658.1L1244.8 495.9L1004.3 496.9Z" fill="#e46171" stroke="#e46171"></path><path d="M1027.3 281.6L878.7 185.3L889.7 335.6Z" fill="#513864" stroke="#513864"></path><path d="M750.2 799.4L871.7 875.7L833.7 789.4Z" fill="#363055" stroke="#363055"></path><path d="M1170.8 285.6L1034.3 198.3L1027.3 281.6Z" fill="#0d1c2f" stroke="#0d1c2f"></path><path d="M1027.3 281.6L1034.3 198.3L878.7 185.3Z" fill="#8e4577" stroke="#8e4577"></path><path d="M1244.8 495.9L1170.8 285.6L1004.3 496.9Z" fill="#363055" stroke="#363055"></path><path d="M1080.3 899.7L1166.8 809.4L1034.3 768.4Z" fill="#513864" stroke="#513864"></path><path d="M1034.3 768.4L1166.8 809.4L1166.8 658.1Z" fill="#e46171" stroke="#e46171"></path><path d="M1166.8 658.1L1345.4 586.1L1244.8 495.9Z" fill="#363055" stroke="#363055"></path><path d="M871.7 875.7L1080.3 899.7L1034.3 768.4Z" fill="#fa7268" stroke="#fa7268"></path><path d="M480.6 411.9L515.6 589.1L681.2 479.9Z" fill="#fa7268" stroke="#fa7268"></path><path d="M681.2 479.9L515.6 589.1L710.2 591.1Z" fill="#0d1c2f" stroke="#0d1c2f"></path><path d="M878.7 185.3L669.2 191.3L746.2 262.6Z" fill="#ca5577" stroke="#ca5577"></path><path d="M529.6 293.6L480.6 411.9L681.2 479.9Z" fill="#ca5577" stroke="#ca5577"></path><path d="M1417.4 817.4L1345.4 586.1L1166.8 658.1Z" fill="#ad4c79" stroke="#ad4c79"></path><path d="M1244.8 495.9L1394.4 423.9L1170.8 285.6Z" fill="#513864" stroke="#513864"></path><path d="M529.6 293.6L681.2 479.9L746.2 262.6Z" fill="#ad4c79" stroke="#ad4c79"></path><path d="M669.2 191.3L529.6 293.6L746.2 262.6Z" fill="#513864" stroke="#513864"></path><path d="M515.6 589.1L543.6 802.4L710.2 591.1Z" fill="#513864" stroke="#513864"></path><path d="M750.2 799.4L743.2 965.7L871.7 875.7Z" fill="#363055" stroke="#363055"></path><path d="M372.1 809.4L543.6 802.4L515.6 589.1Z" fill="#e46171" stroke="#e46171"></path><path d="M551.6 870.7L743.2 965.7L750.2 799.4Z" fill="#fa7268" stroke="#fa7268"></path><path d="M871.7 875.7L896.7 1080L1080.3 899.7Z" fill="#6f3f70" stroke="#6f3f70"></path><path d="M1345.4 586.1L1394.4 423.9L1244.8 495.9Z" fill="#ca5577" stroke="#ca5577"></path><path d="M1170.8 285.6L1270.8 158.3L1034.3 198.3Z" fill="#6f3f70" stroke="#6f3f70"></path><path d="M372.1 809.4L551.6 870.7L543.6 802.4Z" fill="#0d1c2f" stroke="#0d1c2f"></path><path d="M543.6 802.4L551.6 870.7L750.2 799.4Z" fill="#ad4c79" stroke="#ad4c79"></path><path d="M1435.4 303.6L1270.8 158.3L1170.8 285.6Z" fill="#513864" stroke="#513864"></path><path d="M1055.3 0L852.7 0L878.7 185.3Z" fill="#e46171" stroke="#e46171"></path><path d="M664.2 0L520.6 178.3L669.2 191.3Z" fill="#e46171" stroke="#e46171"></path><path d="M852.7 0L669.2 191.3L878.7 185.3Z" fill="#0d1c2f" stroke="#0d1c2f"></path><path d="M669.2 191.3L520.6 178.3L529.6 293.6Z" fill="#1f2743" stroke="#1f2743"></path><path d="M529.6 293.6L378.1 349.6L480.6 411.9Z" fill="#513864" stroke="#513864"></path><path d="M1055.3 0L878.7 185.3L1034.3 198.3Z" fill="#00101c" stroke="#00101c"></path><path d="M314.1 495.9L383.1 577.1L480.6 411.9Z" fill="#ca5577" stroke="#ca5577"></path><path d="M480.6 411.9L383.1 577.1L515.6 589.1Z" fill="#ca5577" stroke="#ca5577"></path><path d="M1080.3 899.7L1252.8 946.7L1166.8 809.4Z" fill="#0d1c2f" stroke="#0d1c2f"></path><path d="M1166.8 809.4L1417.4 817.4L1166.8 658.1Z" fill="#ad4c79" stroke="#ad4c79"></path><path d="M1604.9 426.9L1435.4 303.6L1394.4 423.9Z" fill="#e46171" stroke="#e46171"></path><path d="M1182.8 1080L1252.8 946.7L1080.3 899.7Z" fill="#ca5577" stroke="#ca5577"></path><path d="M1225.8 0L1055.3 0L1034.3 198.3Z" fill="#ad4c79" stroke="#ad4c79"></path><path d="M685.2 1080L896.7 1080L743.2 965.7Z" fill="#8e4577" stroke="#8e4577"></path><path d="M743.2 965.7L896.7 1080L871.7 875.7Z" fill="#363055" stroke="#363055"></path><path d="M1604.9 426.9L1394.4 423.9L1345.4 586.1Z" fill="#00101c" stroke="#00101c"></path><path d="M1394.4 423.9L1435.4 303.6L1170.8 285.6Z" fill="#8e4577" stroke="#8e4577"></path><path d="M395.1 134.3L378.1 349.6L529.6 293.6Z" fill="#00101c" stroke="#00101c"></path><path d="M896.7 1080L1093.3 1080L1080.3 899.7Z" fill="#0d1c2f" stroke="#0d1c2f"></path><path d="M1399.4 956.7L1417.4 817.4L1252.8 946.7Z" fill="#1f2743" stroke="#1f2743"></path><path d="M1252.8 946.7L1417.4 817.4L1166.8 809.4Z" fill="#e46171" stroke="#e46171"></path><path d="M852.7 0L664.2 0L669.2 191.3Z" fill="#0d1c2f" stroke="#0d1c2f"></path><path d="M520.6 178.3L395.1 134.3L529.6 293.6Z" fill="#363055" stroke="#363055"></path><path d="M551.6 870.7L685.2 1080L743.2 965.7Z" fill="#513864" stroke="#513864"></path><path d="M378.1 349.6L314.1 495.9L480.6 411.9Z" fill="#fa7268" stroke="#fa7268"></path><path d="M383.1 577.1L372.1 809.4L515.6 589.1Z" fill="#ad4c79" stroke="#ad4c79"></path><path d="M1093.3 1080L1182.8 1080L1080.3 899.7Z" fill="#513864" stroke="#513864"></path><path d="M216.5 579.1L372.1 809.4L383.1 577.1Z" fill="#0d1c2f" stroke="#0d1c2f"></path><path d="M551.6 870.7L490.6 1080L685.2 1080Z" fill="#0d1c2f" stroke="#0d1c2f"></path><path d="M1399.4 111.3L1225.8 0L1270.8 158.3Z" fill="#fa7268" stroke="#fa7268"></path><path d="M1270.8 158.3L1225.8 0L1034.3 198.3Z" fill="#ca5577" stroke="#ca5577"></path><path d="M1435.4 303.6L1399.4 111.3L1270.8 158.3Z" fill="#00101c" stroke="#00101c"></path><path d="M1385.4 1080L1399.4 956.7L1252.8 946.7Z" fill="#513864" stroke="#513864"></path><path d="M1574.9 920.7L1531.9 721.4L1417.4 817.4Z" fill="#6f3f70" stroke="#6f3f70"></path><path d="M1417.4 817.4L1531.9 721.4L1345.4 586.1Z" fill="#8e4577" stroke="#8e4577"></path><path d="M1435.4 303.6L1572.9 276.6L1399.4 111.3Z" fill="#0d1c2f" stroke="#0d1c2f"></path><path d="M529.6 0L395.1 134.3L520.6 178.3Z" fill="#0d1c2f" stroke="#0d1c2f"></path><path d="M378.1 349.6L225.5 449.9L314.1 495.9Z" fill="#6f3f70" stroke="#6f3f70"></path><path d="M664.2 0L529.6 0L520.6 178.3Z" fill="#363055" stroke="#363055"></path><path d="M300.1 910.7L490.6 1080L551.6 870.7Z" fill="#1f2743" stroke="#1f2743"></path><path d="M139.5 259.6L225.5 449.9L378.1 349.6Z" fill="#513864" stroke="#513864"></path><path d="M314.1 495.9L216.5 579.1L383.1 577.1Z" fill="#e46171" stroke="#e46171"></path><path d="M1608.9 662.1L1604.9 426.9L1345.4 586.1Z" fill="#513864" stroke="#513864"></path><path d="M225.5 449.9L216.5 579.1L314.1 495.9Z" fill="#fa7268" stroke="#fa7268"></path><path d="M372.1 809.4L300.1 910.7L551.6 870.7Z" fill="#ca5577" stroke="#ca5577"></path><path d="M1604.9 426.9L1572.9 276.6L1435.4 303.6Z" fill="#0d1c2f" stroke="#0d1c2f"></path><path d="M1768.5 795.4L1608.9 662.1L1531.9 721.4Z" fill="#6f3f70" stroke="#6f3f70"></path><path d="M1531.9 721.4L1608.9 662.1L1345.4 586.1Z" fill="#fa7268" stroke="#fa7268"></path><path d="M1182.8 1080L1385.4 1080L1252.8 946.7Z" fill="#e46171" stroke="#e46171"></path><path d="M1399.4 956.7L1574.9 920.7L1417.4 817.4Z" fill="#0d1c2f" stroke="#0d1c2f"></path><path d="M164.5 819.4L300.1 910.7L372.1 809.4Z" fill="#ca5577" stroke="#ca5577"></path><path d="M1599.9 0L1410.4 0L1399.4 111.3Z" fill="#ad4c79" stroke="#ad4c79"></path><path d="M1399.4 111.3L1410.4 0L1225.8 0Z" fill="#6f3f70" stroke="#6f3f70"></path><path d="M1583.9 1080L1574.9 920.7L1399.4 956.7Z" fill="#363055" stroke="#363055"></path><path d="M1748.5 331.6L1621.9 203.3L1572.9 276.6Z" fill="#363055" stroke="#363055"></path><path d="M1572.9 276.6L1621.9 203.3L1399.4 111.3Z" fill="#fa7268" stroke="#fa7268"></path><path d="M1697.5 407.9L1572.9 276.6L1604.9 426.9Z" fill="#fa7268" stroke="#fa7268"></path><path d="M1768.5 795.4L1696.5 585.1L1608.9 662.1Z" fill="#00101c" stroke="#00101c"></path><path d="M1608.9 662.1L1696.5 585.1L1604.9 426.9Z" fill="#363055" stroke="#363055"></path><path d="M529.6 0L336.1 0L395.1 134.3Z" fill="#6f3f70" stroke="#6f3f70"></path><path d="M395.1 134.3L139.5 259.6L378.1 349.6Z" fill="#e46171" stroke="#e46171"></path><path d="M1696.5 585.1L1697.5 407.9L1604.9 426.9Z" fill="#6f3f70" stroke="#6f3f70"></path><path d="M300.1 910.7L330.1 1080L490.6 1080Z" fill="#363055" stroke="#363055"></path><path d="M188.5 979.7L330.1 1080L300.1 910.7Z" fill="#00101c" stroke="#00101c"></path><path d="M0 610.1L164.5 819.4L216.5 579.1Z" fill="#8e4577" stroke="#8e4577"></path><path d="M216.5 579.1L164.5 819.4L372.1 809.4Z" fill="#ad4c79" stroke="#ad4c79"></path><path d="M182.5 123.3L139.5 259.6L395.1 134.3Z" fill="#513864" stroke="#513864"></path><path d="M225.5 449.9L0 455.9L216.5 579.1Z" fill="#0d1c2f" stroke="#0d1c2f"></path><path d="M336.1 0L182.5 123.3L395.1 134.3Z" fill="#00101c" stroke="#00101c"></path><path d="M164.5 819.4L188.5 979.7L300.1 910.7Z" fill="#8e4577" stroke="#8e4577"></path><path d="M1920 508.9L1748.5 331.6L1697.5 407.9Z" fill="#ad4c79" stroke="#ad4c79"></path><path d="M1697.5 407.9L1748.5 331.6L1572.9 276.6Z" fill="#8e4577" stroke="#8e4577"></path><path d="M1385.4 1080L1583.9 1080L1399.4 956.7Z" fill="#e46171" stroke="#e46171"></path><path d="M1574.9 920.7L1768.5 795.4L1531.9 721.4Z" fill="#6f3f70" stroke="#6f3f70"></path><path d="M1621.9 203.3L1599.9 0L1399.4 111.3Z" fill="#00101c" stroke="#00101c"></path><path d="M1702.5 0L1599.9 0L1621.9 203.3Z" fill="#0d1c2f" stroke="#0d1c2f"></path><path d="M1778.5 953.7L1768.5 795.4L1574.9 920.7Z" fill="#6f3f70" stroke="#6f3f70"></path><path d="M1696.5 585.1L1920 508.9L1697.5 407.9Z" fill="#e46171" stroke="#e46171"></path><path d="M0 337.6L225.5 449.9L139.5 259.6Z" fill="#513864" stroke="#513864"></path><path d="M0 337.6L0 455.9L225.5 449.9Z" fill="#fa7268" stroke="#fa7268"></path><path d="M164.5 819.4L0 941.7L188.5 979.7Z" fill="#1f2743" stroke="#1f2743"></path><path d="M0 455.9L0 610.1L216.5 579.1Z" fill="#ca5577" stroke="#ca5577"></path><path d="M188.5 979.7L177.5 1080L330.1 1080Z" fill="#1f2743" stroke="#1f2743"></path><path d="M0 1080L177.5 1080L188.5 979.7Z" fill="#00101c" stroke="#00101c"></path><path d="M1920 272.6L1761.5 154.3L1748.5 331.6Z" fill="#0d1c2f" stroke="#0d1c2f"></path><path d="M1748.5 331.6L1761.5 154.3L1621.9 203.3Z" fill="#0d1c2f" stroke="#0d1c2f"></path><path d="M0 156.3L0 337.6L139.5 259.6Z" fill="#e46171" stroke="#e46171"></path><path d="M336.1 0L137.5 0L182.5 123.3Z" fill="#ca5577" stroke="#ca5577"></path><path d="M182.5 123.3L0 156.3L139.5 259.6Z" fill="#00101c" stroke="#00101c"></path><path d="M0 610.1L0 777.4L164.5 819.4Z" fill="#0d1c2f" stroke="#0d1c2f"></path><path d="M1761.5 154.3L1702.5 0L1621.9 203.3Z" fill="#e46171" stroke="#e46171"></path><path d="M1583.9 1080L1778.5 953.7L1574.9 920.7Z" fill="#513864" stroke="#513864"></path><path d="M1920 650.1L1920 508.9L1696.5 585.1Z" fill="#fa7268" stroke="#fa7268"></path><path d="M137.5 0L0 156.3L182.5 123.3Z" fill="#363055" stroke="#363055"></path><path d="M1583.9 1080L1755.5 1080L1778.5 953.7Z" fill="#363055" stroke="#363055"></path><path d="M0 777.4L0 941.7L164.5 819.4Z" fill="#ad4c79" stroke="#ad4c79"></path><path d="M1920 650.1L1696.5 585.1L1768.5 795.4Z" fill="#ca5577" stroke="#ca5577"></path><path d="M1761.5 154.3L1920 0L1702.5 0Z" fill="#e46171" stroke="#e46171"></path><path d="M1920 650.1L1768.5 795.4L1920 793.4Z" fill="#ca5577" stroke="#ca5577"></path><path d="M1920 793.4L1768.5 795.4L1920 942.7Z" fill="#00101c" stroke="#00101c"></path><path d="M1920 508.9L1920 272.6L1748.5 331.6Z" fill="#e46171" stroke="#e46171"></path><path d="M1920 942.7L1768.5 795.4L1778.5 953.7Z" fill="#00101c" stroke="#00101c"></path><path d="M137.5 0L0 0L0 156.3Z" fill="#8e4577" stroke="#8e4577"></path><path d="M1920 272.6L1920 185.3L1761.5 154.3Z" fill="#fa7268" stroke="#fa7268"></path><path d="M0 941.7L0 1080L188.5 979.7Z" fill="#fa7268" stroke="#fa7268"></path><path d="M1920 1080L1920 942.7L1778.5 953.7Z" fill="#ca5577" stroke="#ca5577"></path><path d="M1920 185.3L1920 0L1761.5 154.3Z" fill="#ad4c79" stroke="#ad4c79"></path><path d="M1755.5 1080L1920 1080L1778.5 953.7Z" fill="#e46171" stroke="#e46171"></path></g></svg>