<svg id="visual" viewBox="0 0 9999 9999" width="9999" height="9999" xmlns="http://www.w3.org/2000/svg" xmlns:xlink="http://www.w3.org/1999/xlink" version="1.1"><g stroke-width="1" stroke-linejoin="bevel"><path d="M5401 4583L4530 4578L4564 5418Z" fill="#8e4577" stroke="#8e4577"></path><path d="M4564 5418L5411 5454L5401 4583Z" fill="#513864" stroke="#513864"></path><path d="M4530 4578L3690 4599L4564 5418Z" fill="#00101c" stroke="#00101c"></path><path d="M6355 4558L5450 3673L5401 4583Z" fill="#8e4577" stroke="#8e4577"></path><path d="M5401 4583L5450 3673L4530 4578Z" fill="#fa7268" stroke="#fa7268"></path><path d="M4530 4578L3671 3685L3690 4599Z" fill="#00101c" stroke="#00101c"></path><path d="M3690 4599L3610 5403L4564 5418Z" fill="#1f2743" stroke="#1f2743"></path><path d="M4564 5418L4565 6405L5411 5454Z" fill="#e46171" stroke="#e46171"></path><path d="M5411 5454L6355 4558L5401 4583Z" fill="#363055" stroke="#363055"></path><path d="M5450 3673L4524 3583L4530 4578Z" fill="#513864" stroke="#513864"></path><path d="M3644 6312L4565 6405L4564 5418Z" fill="#ad4c79" stroke="#ad4c79"></path><path d="M5411 5454L6387 5479L6355 4558Z" fill="#6f3f70" stroke="#6f3f70"></path><path d="M5503 6411L6387 5479L5411 5454Z" fill="#0d1c2f" stroke="#0d1c2f"></path><path d="M4565 6405L5503 6411L5411 5454Z" fill="#fa7268" stroke="#fa7268"></path><path d="M4524 3583L3671 3685L4530 4578Z" fill="#1f2743" stroke="#1f2743"></path><path d="M3690 4599L2725 4591L3610 5403Z" fill="#6f3f70" stroke="#6f3f70"></path><path d="M3610 5403L3644 6312L4564 5418Z" fill="#fa7268" stroke="#fa7268"></path><path d="M7220 4545L6347 3637L6355 4558Z" fill="#363055" stroke="#363055"></path><path d="M6355 4558L6347 3637L5450 3673Z" fill="#fa7268" stroke="#fa7268"></path><path d="M5450 3673L4589 2759L4524 3583Z" fill="#e46171" stroke="#e46171"></path><path d="M5503 6411L6383 6402L6387 5479Z" fill="#1f2743" stroke="#1f2743"></path><path d="M5504 2689L4589 2759L5450 3673Z" fill="#8e4577" stroke="#8e4577"></path><path d="M4524 3583L3610 2752L3671 3685Z" fill="#6f3f70" stroke="#6f3f70"></path><path d="M2680 3615L2725 4591L3671 3685Z" fill="#513864" stroke="#513864"></path><path d="M3671 3685L2725 4591L3690 4599Z" fill="#0d1c2f" stroke="#0d1c2f"></path><path d="M3610 5403L2731 5425L3644 6312Z" fill="#00101c" stroke="#00101c"></path><path d="M2725 4591L2731 5425L3610 5403Z" fill="#1f2743" stroke="#1f2743"></path><path d="M7257 5431L7220 4545L6387 5479Z" fill="#ad4c79" stroke="#ad4c79"></path><path d="M6387 5479L7220 4545L6355 4558Z" fill="#ad4c79" stroke="#ad4c79"></path><path d="M4565 6405L5503 7226L5503 6411Z" fill="#1f2743" stroke="#1f2743"></path><path d="M5503 6411L5503 7226L6383 6402Z" fill="#0d1c2f" stroke="#0d1c2f"></path><path d="M4563 7323L5503 7226L4565 6405Z" fill="#00101c" stroke="#00101c"></path><path d="M7308 6308L7257 5431L6387 5479Z" fill="#fa7268" stroke="#fa7268"></path><path d="M6411 2717L5504 2689L6347 3637Z" fill="#00101c" stroke="#00101c"></path><path d="M6347 3637L5504 2689L5450 3673Z" fill="#513864" stroke="#513864"></path><path d="M3601 7222L4565 6405L3644 6312Z" fill="#8e4577" stroke="#8e4577"></path><path d="M3601 7222L4563 7323L4565 6405Z" fill="#363055" stroke="#363055"></path><path d="M3664 1808L3610 2752L4589 2759Z" fill="#ca5577" stroke="#ca5577"></path><path d="M4589 2759L3610 2752L4524 3583Z" fill="#e46171" stroke="#e46171"></path><path d="M2731 5425L2746 6356L3644 6312Z" fill="#fa7268" stroke="#fa7268"></path><path d="M2746 6356L3601 7222L3644 6312Z" fill="#ca5577" stroke="#ca5577"></path><path d="M3610 2752L2680 3615L3671 3685Z" fill="#6f3f70" stroke="#6f3f70"></path><path d="M2725 4591L1832 5416L2731 5425Z" fill="#ad4c79" stroke="#ad4c79"></path><path d="M2731 5425L1832 5416L2746 6356Z" fill="#ad4c79" stroke="#ad4c79"></path><path d="M8198 3655L7242 3604L7220 4545Z" fill="#ad4c79" stroke="#ad4c79"></path><path d="M7220 4545L7242 3604L6347 3637Z" fill="#513864" stroke="#513864"></path><path d="M7242 3604L6411 2717L6347 3637Z" fill="#ca5577" stroke="#ca5577"></path><path d="M5503 7226L6350 7285L6383 6402Z" fill="#8e4577" stroke="#8e4577"></path><path d="M6383 6402L7308 6308L6387 5479Z" fill="#1f2743" stroke="#1f2743"></path><path d="M5474 8158L6350 7285L5503 7226Z" fill="#513864" stroke="#513864"></path><path d="M7300 7268L7308 6308L6383 6402Z" fill="#6f3f70" stroke="#6f3f70"></path><path d="M7257 5431L8185 4583L7220 4545Z" fill="#363055" stroke="#363055"></path><path d="M2694 1796L2751 2774L3610 2752Z" fill="#1f2743" stroke="#1f2743"></path><path d="M3610 2752L2751 2774L2680 3615Z" fill="#ca5577" stroke="#ca5577"></path><path d="M1860 3624L1861 4550L2680 3615Z" fill="#ad4c79" stroke="#ad4c79"></path><path d="M2680 3615L1861 4550L2725 4591Z" fill="#0d1c2f" stroke="#0d1c2f"></path><path d="M1842 7227L2740 7223L2746 6356Z" fill="#8e4577" stroke="#8e4577"></path><path d="M2746 6356L2740 7223L3601 7222Z" fill="#8e4577" stroke="#8e4577"></path><path d="M3614 8180L4549 8126L4563 7323Z" fill="#513864" stroke="#513864"></path><path d="M1861 4550L1832 5416L2725 4591Z" fill="#1f2743" stroke="#1f2743"></path><path d="M3614 8180L4563 7323L3601 7222Z" fill="#ca5577" stroke="#ca5577"></path><path d="M4563 7323L5474 8158L5503 7226Z" fill="#1f2743" stroke="#1f2743"></path><path d="M5415 1763L4599 1829L5504 2689Z" fill="#00101c" stroke="#00101c"></path><path d="M5504 2689L4599 1829L4589 2759Z" fill="#e46171" stroke="#e46171"></path><path d="M4549 8126L5474 8158L4563 7323Z" fill="#8e4577" stroke="#8e4577"></path><path d="M7308 6308L8175 5414L7257 5431Z" fill="#363055" stroke="#363055"></path><path d="M8175 5414L8185 4583L7257 5431Z" fill="#1f2743" stroke="#1f2743"></path><path d="M7242 3604L7316 2679L6411 2717Z" fill="#6f3f70" stroke="#6f3f70"></path><path d="M6321 1790L5415 1763L5504 2689Z" fill="#513864" stroke="#513864"></path><path d="M6350 7285L7300 7268L6383 6402Z" fill="#e46171" stroke="#e46171"></path><path d="M7308 6308L8146 6316L8175 5414Z" fill="#fa7268" stroke="#fa7268"></path><path d="M7240 8231L7300 7268L6350 7285Z" fill="#1f2743" stroke="#1f2743"></path><path d="M8198 3655L7316 2679L7242 3604Z" fill="#ca5577" stroke="#ca5577"></path><path d="M6411 2717L6321 1790L5504 2689Z" fill="#ca5577" stroke="#ca5577"></path><path d="M2751 2774L1860 3624L2680 3615Z" fill="#1f2743" stroke="#1f2743"></path><path d="M898 5401L1765 6372L1832 5416Z" fill="#363055" stroke="#363055"></path><path d="M4501 951L3664 1808L4599 1829Z" fill="#00101c" stroke="#00101c"></path><path d="M4599 1829L3664 1808L4589 2759Z" fill="#00101c" stroke="#00101c"></path><path d="M2751 2774L1835 2705L1860 3624Z" fill="#ad4c79" stroke="#ad4c79"></path><path d="M7300 7268L8146 6316L7308 6308Z" fill="#ad4c79" stroke="#ad4c79"></path><path d="M7241 1813L6321 1790L6411 2717Z" fill="#ad4c79" stroke="#ad4c79"></path><path d="M2781 8126L3614 8180L3601 7222Z" fill="#e46171" stroke="#e46171"></path><path d="M4549 8126L4507 9054L5474 8158Z" fill="#e46171" stroke="#e46171"></path><path d="M898 5401L1832 5416L854 4592Z" fill="#1f2743" stroke="#1f2743"></path><path d="M1832 5416L1765 6372L2746 6356Z" fill="#ad4c79" stroke="#ad4c79"></path><path d="M2740 7223L2781 8126L3601 7222Z" fill="#513864" stroke="#513864"></path><path d="M5469 9126L6338 8190L5474 8158Z" fill="#363055" stroke="#363055"></path><path d="M5474 8158L6338 8190L6350 7285Z" fill="#1f2743" stroke="#1f2743"></path><path d="M8218 2679L8198 3655L9102 2771Z" fill="#1f2743" stroke="#1f2743"></path><path d="M8185 4583L8198 3655L7220 4545Z" fill="#1f2743" stroke="#1f2743"></path><path d="M1842 7227L2781 8126L2740 7223Z" fill="#ca5577" stroke="#ca5577"></path><path d="M1765 6372L1842 7227L2746 6356Z" fill="#363055" stroke="#363055"></path><path d="M2694 1796L1835 2705L2751 2774Z" fill="#e46171" stroke="#e46171"></path><path d="M854 4592L1832 5416L1861 4550Z" fill="#ad4c79" stroke="#ad4c79"></path><path d="M8152 1785L7241 1813L7316 2679Z" fill="#1f2743" stroke="#1f2743"></path><path d="M7316 2679L7241 1813L6411 2717Z" fill="#8e4577" stroke="#8e4577"></path><path d="M5503 886L4501 951L5415 1763Z" fill="#ad4c79" stroke="#ad4c79"></path><path d="M3664 1808L2694 1796L3610 2752Z" fill="#fa7268" stroke="#fa7268"></path><path d="M2735 951L2694 1796L3664 1808Z" fill="#8e4577" stroke="#8e4577"></path><path d="M7240 8231L8134 7310L7300 7268Z" fill="#0d1c2f" stroke="#0d1c2f"></path><path d="M7300 7268L8134 7310L8146 6316Z" fill="#1f2743" stroke="#1f2743"></path><path d="M9125 5505L9095 4491L8175 5414Z" fill="#8e4577" stroke="#8e4577"></path><path d="M6338 8190L7240 8231L6350 7285Z" fill="#e46171" stroke="#e46171"></path><path d="M6397 9051L7240 8231L6338 8190Z" fill="#ca5577" stroke="#ca5577"></path><path d="M8198 3655L8218 2679L7316 2679Z" fill="#6f3f70" stroke="#6f3f70"></path><path d="M9095 4491L8198 3655L8185 4583Z" fill="#1f2743" stroke="#1f2743"></path><path d="M5503 886L5415 1763L6321 1790Z" fill="#8e4577" stroke="#8e4577"></path><path d="M5415 1763L4501 951L4599 1829Z" fill="#00101c" stroke="#00101c"></path><path d="M854 4592L1861 4550L959 3653Z" fill="#00101c" stroke="#00101c"></path><path d="M1765 6372L926 7274L1842 7227Z" fill="#363055" stroke="#363055"></path><path d="M3638 9101L4507 9054L3614 8180Z" fill="#8e4577" stroke="#8e4577"></path><path d="M3614 8180L4507 9054L4549 8126Z" fill="#8e4577" stroke="#8e4577"></path><path d="M959 3653L1861 4550L1860 3624Z" fill="#363055" stroke="#363055"></path><path d="M6340 949L5503 886L6321 1790Z" fill="#513864" stroke="#513864"></path><path d="M9125 5505L8175 5414L8146 6316Z" fill="#6f3f70" stroke="#6f3f70"></path><path d="M8175 5414L9095 4491L8185 4583Z" fill="#ca5577" stroke="#ca5577"></path><path d="M4507 9054L5469 9126L5474 8158Z" fill="#ad4c79" stroke="#ad4c79"></path><path d="M9114 6336L9125 5505L8146 6316Z" fill="#ad4c79" stroke="#ad4c79"></path><path d="M1835 2705L959 3653L1860 3624Z" fill="#ca5577" stroke="#ca5577"></path><path d="M4539 0L3675 935L4501 951Z" fill="#363055" stroke="#363055"></path><path d="M4501 951L3675 935L3664 1808Z" fill="#513864" stroke="#513864"></path><path d="M7241 1813L6340 949L6321 1790Z" fill="#8e4577" stroke="#8e4577"></path><path d="M7313 939L6340 949L7241 1813Z" fill="#8e4577" stroke="#8e4577"></path><path d="M9095 4491L9066 3685L8198 3655Z" fill="#0d1c2f" stroke="#0d1c2f"></path><path d="M5469 9126L6397 9051L6338 8190Z" fill="#fa7268" stroke="#fa7268"></path><path d="M0 5469L879 6381L898 5401Z" fill="#363055" stroke="#363055"></path><path d="M898 5401L879 6381L1765 6372Z" fill="#fa7268" stroke="#fa7268"></path><path d="M2704 9116L3638 9101L2781 8126Z" fill="#ad4c79" stroke="#ad4c79"></path><path d="M2781 8126L3638 9101L3614 8180Z" fill="#513864" stroke="#513864"></path><path d="M4507 9054L4509 9999L5469 9126Z" fill="#0d1c2f" stroke="#0d1c2f"></path><path d="M1778 8199L2781 8126L1842 7227Z" fill="#8e4577" stroke="#8e4577"></path><path d="M9036 7220L9114 6336L8146 6316Z" fill="#1f2743" stroke="#1f2743"></path><path d="M9036 7220L8146 6316L8134 7310Z" fill="#ad4c79" stroke="#ad4c79"></path><path d="M2694 1796L1770 1865L1835 2705Z" fill="#e46171" stroke="#e46171"></path><path d="M1835 2705L950 2706L959 3653Z" fill="#e46171" stroke="#e46171"></path><path d="M1775 911L1770 1865L2694 1796Z" fill="#ad4c79" stroke="#ad4c79"></path><path d="M9084 1781L8152 1785L8218 2679Z" fill="#6f3f70" stroke="#6f3f70"></path><path d="M8218 2679L8152 1785L7316 2679Z" fill="#00101c" stroke="#00101c"></path><path d="M926 7274L1778 8199L1842 7227Z" fill="#fa7268" stroke="#fa7268"></path><path d="M8186 9073L8201 8231L7240 8231Z" fill="#6f3f70" stroke="#6f3f70"></path><path d="M7240 8231L8201 8231L8134 7310Z" fill="#ad4c79" stroke="#ad4c79"></path><path d="M3675 935L2735 951L3664 1808Z" fill="#ca5577" stroke="#ca5577"></path><path d="M3608 0L2735 951L3675 935Z" fill="#6f3f70" stroke="#6f3f70"></path><path d="M1770 1865L950 2706L1835 2705Z" fill="#1f2743" stroke="#1f2743"></path><path d="M959 3653L0 4494L854 4592Z" fill="#0d1c2f" stroke="#0d1c2f"></path><path d="M879 6381L926 7274L1765 6372Z" fill="#0d1c2f" stroke="#0d1c2f"></path><path d="M8201 8231L9036 7220L8134 7310Z" fill="#00101c" stroke="#00101c"></path><path d="M8152 1785L7313 939L7241 1813Z" fill="#1f2743" stroke="#1f2743"></path><path d="M5444 0L4539 0L5503 886Z" fill="#ad4c79" stroke="#ad4c79"></path><path d="M9066 3685L9102 2771L8198 3655Z" fill="#e46171" stroke="#e46171"></path><path d="M9999 3650L9102 2771L9066 3685Z" fill="#00101c" stroke="#00101c"></path><path d="M9999 3650L9066 3685L9095 4491Z" fill="#00101c" stroke="#00101c"></path><path d="M1778 8199L2704 9116L2781 8126Z" fill="#6f3f70" stroke="#6f3f70"></path><path d="M3638 9101L4509 9999L4507 9054Z" fill="#363055" stroke="#363055"></path><path d="M6397 9051L7281 9143L7240 8231Z" fill="#363055" stroke="#363055"></path><path d="M6413 9999L7281 9143L6397 9051Z" fill="#8e4577" stroke="#8e4577"></path><path d="M6413 9999L6397 9051L5469 9126Z" fill="#1f2743" stroke="#1f2743"></path><path d="M0 3643L0 4494L959 3653Z" fill="#0d1c2f" stroke="#0d1c2f"></path><path d="M854 4592L0 5469L898 5401Z" fill="#ad4c79" stroke="#ad4c79"></path><path d="M879 6381L0 7288L926 7274Z" fill="#363055" stroke="#363055"></path><path d="M0 4494L0 5469L854 4592Z" fill="#363055" stroke="#363055"></path><path d="M5444 0L5503 886L6376 0Z" fill="#e46171" stroke="#e46171"></path><path d="M5503 886L4539 0L4501 951Z" fill="#00101c" stroke="#00101c"></path><path d="M6376 0L5503 886L6340 949Z" fill="#ca5577" stroke="#ca5577"></path><path d="M3630 9999L4509 9999L3638 9101Z" fill="#1f2743" stroke="#1f2743"></path><path d="M4509 9999L5419 9999L5469 9126Z" fill="#00101c" stroke="#00101c"></path><path d="M9999 5483L9999 4527L9125 5505Z" fill="#ca5577" stroke="#ca5577"></path><path d="M9125 5505L9999 4527L9095 4491Z" fill="#ad4c79" stroke="#ad4c79"></path><path d="M9999 5483L9125 5505L9114 6336Z" fill="#ad4c79" stroke="#ad4c79"></path><path d="M9999 6382L9999 5483L9114 6336Z" fill="#363055" stroke="#363055"></path><path d="M950 2706L0 3643L959 3653Z" fill="#363055" stroke="#363055"></path><path d="M0 2722L0 3643L950 2706Z" fill="#513864" stroke="#513864"></path><path d="M1775 911L930 1792L1770 1865Z" fill="#00101c" stroke="#00101c"></path><path d="M1770 1865L930 1792L950 2706Z" fill="#0d1c2f" stroke="#0d1c2f"></path><path d="M1775 911L2694 1796L2735 951Z" fill="#00101c" stroke="#00101c"></path><path d="M0 5469L0 6379L879 6381Z" fill="#6f3f70" stroke="#6f3f70"></path><path d="M926 7274L906 8223L1778 8199Z" fill="#0d1c2f" stroke="#0d1c2f"></path><path d="M4539 0L3608 0L3675 935Z" fill="#fa7268" stroke="#fa7268"></path><path d="M1866 0L1775 911L2735 951Z" fill="#00101c" stroke="#00101c"></path><path d="M7226 0L6376 0L6340 949Z" fill="#1f2743" stroke="#1f2743"></path><path d="M8152 1785L8154 886L7313 939Z" fill="#fa7268" stroke="#fa7268"></path><path d="M7313 939L7226 0L6340 949Z" fill="#8e4577" stroke="#8e4577"></path><path d="M9084 1781L8154 886L8152 1785Z" fill="#1f2743" stroke="#1f2743"></path><path d="M9084 1781L8218 2679L9102 2771Z" fill="#0d1c2f" stroke="#0d1c2f"></path><path d="M2750 9999L3630 9999L3638 9101Z" fill="#363055" stroke="#363055"></path><path d="M1778 8199L1764 9139L2704 9116Z" fill="#513864" stroke="#513864"></path><path d="M2704 9116L2750 9999L3638 9101Z" fill="#00101c" stroke="#00101c"></path><path d="M0 7288L906 8223L926 7274Z" fill="#00101c" stroke="#00101c"></path><path d="M8201 8231L9098 8200L9036 7220Z" fill="#00101c" stroke="#00101c"></path><path d="M9036 7220L9999 6382L9114 6336Z" fill="#1f2743" stroke="#1f2743"></path><path d="M7281 9143L8186 9073L7240 8231Z" fill="#0d1c2f" stroke="#0d1c2f"></path><path d="M8131 9999L8186 9073L7281 9143Z" fill="#00101c" stroke="#00101c"></path><path d="M9999 4527L9999 3650L9095 4491Z" fill="#e46171" stroke="#e46171"></path><path d="M9999 2715L9084 1781L9102 2771Z" fill="#fa7268" stroke="#fa7268"></path><path d="M5419 9999L6413 9999L5469 9126Z" fill="#ca5577" stroke="#ca5577"></path><path d="M9999 7315L9999 6382L9036 7220Z" fill="#ca5577" stroke="#ca5577"></path><path d="M8186 9073L9098 8200L8201 8231Z" fill="#00101c" stroke="#00101c"></path><path d="M961 9110L1764 9139L1778 8199Z" fill="#00101c" stroke="#00101c"></path><path d="M0 1856L0 2722L950 2706Z" fill="#8e4577" stroke="#8e4577"></path><path d="M0 1856L950 2706L930 1792Z" fill="#fa7268" stroke="#fa7268"></path><path d="M3608 0L2716 0L2735 951Z" fill="#6f3f70" stroke="#6f3f70"></path><path d="M8154 886L7226 0L7313 939Z" fill="#fa7268" stroke="#fa7268"></path><path d="M0 6379L0 7288L879 6381Z" fill="#8e4577" stroke="#8e4577"></path><path d="M906 8223L961 9110L1778 8199Z" fill="#1f2743" stroke="#1f2743"></path><path d="M1810 9999L2750 9999L2704 9116Z" fill="#ca5577" stroke="#ca5577"></path><path d="M6413 9999L7237 9999L7281 9143Z" fill="#00101c" stroke="#00101c"></path><path d="M8186 9073L9107 9126L9098 8200Z" fill="#e46171" stroke="#e46171"></path><path d="M9999 3650L9999 2715L9102 2771Z" fill="#ad4c79" stroke="#ad4c79"></path><path d="M9098 8200L9999 7315L9036 7220Z" fill="#6f3f70" stroke="#6f3f70"></path><path d="M1866 0L963 855L1775 911Z" fill="#fa7268" stroke="#fa7268"></path><path d="M1775 911L963 855L930 1792Z" fill="#e46171" stroke="#e46171"></path><path d="M0 9059L961 9110L906 8223Z" fill="#0d1c2f" stroke="#0d1c2f"></path><path d="M1764 9139L1810 9999L2704 9116Z" fill="#fa7268" stroke="#fa7268"></path><path d="M9084 1781L9085 858L8154 886Z" fill="#fa7268" stroke="#fa7268"></path><path d="M8154 886L8205 0L7226 0Z" fill="#ca5577" stroke="#ca5577"></path><path d="M9999 924L9085 858L9084 1781Z" fill="#ad4c79" stroke="#ad4c79"></path><path d="M9041 9999L9107 9126L8186 9073Z" fill="#6f3f70" stroke="#6f3f70"></path><path d="M9098 8200L9999 8154L9999 7315Z" fill="#ad4c79" stroke="#ad4c79"></path><path d="M0 896L0 1856L930 1792Z" fill="#513864" stroke="#513864"></path><path d="M2716 0L1866 0L2735 951Z" fill="#8e4577" stroke="#8e4577"></path><path d="M898 9999L1810 9999L1764 9139Z" fill="#0d1c2f" stroke="#0d1c2f"></path><path d="M0 7288L0 8225L906 8223Z" fill="#8e4577" stroke="#8e4577"></path><path d="M961 9110L898 9999L1764 9139Z" fill="#0d1c2f" stroke="#0d1c2f"></path><path d="M7237 9999L8131 9999L7281 9143Z" fill="#e46171" stroke="#e46171"></path><path d="M9085 858L8205 0L8154 886Z" fill="#00101c" stroke="#00101c"></path><path d="M9999 9078L9999 8154L9098 8200Z" fill="#8e4577" stroke="#8e4577"></path><path d="M9999 2715L9999 1781L9084 1781Z" fill="#e46171" stroke="#e46171"></path><path d="M0 8225L0 9059L906 8223Z" fill="#513864" stroke="#513864"></path><path d="M878 0L0 896L963 855Z" fill="#363055" stroke="#363055"></path><path d="M963 855L0 896L930 1792Z" fill="#513864" stroke="#513864"></path><path d="M1866 0L878 0L963 855Z" fill="#1f2743" stroke="#1f2743"></path><path d="M0 9059L898 9999L961 9110Z" fill="#ad4c79" stroke="#ad4c79"></path><path d="M8131 9999L9041 9999L8186 9073Z" fill="#363055" stroke="#363055"></path><path d="M9107 9126L9999 9078L9098 8200Z" fill="#fa7268" stroke="#fa7268"></path><path d="M9999 1781L9999 924L9084 1781Z" fill="#0d1c2f" stroke="#0d1c2f"></path><path d="M9085 858L9112 0L8205 0Z" fill="#e46171" stroke="#e46171"></path><path d="M9999 0L9112 0L9085 858Z" fill="#8e4577" stroke="#8e4577"></path><path d="M9999 9999L9999 9078L9107 9126Z" fill="#6f3f70" stroke="#6f3f70"></path><path d="M878 0L0 0L0 896Z" fill="#fa7268" stroke="#fa7268"></path><path d="M0 9059L0 9999L898 9999Z" fill="#00101c" stroke="#00101c"></path><path d="M9999 924L9999 0L9085 858Z" fill="#00101c" stroke="#00101c"></path><path d="M9041 9999L9999 9999L9107 9126Z" fill="#363055" stroke="#363055"></path></g></svg>